<svg width="358" height="188" viewBox="0 0 358 188" fill="none" xmlns="http://www.w3.org/2000/svg">
<path d="M358 69.8053V-450.469L178.5 -567.593L-1 -450.469V69.8053L178.5 186.936L358 69.8053Z" fill="url(#paint0_linear_61385)"/>
<g style="mix-blend-mode:luminosity" opacity="0.4">
<path d="M0.800786 -46.1458V70.562L90.1006 128.922L179.4 70.562V-46.1458L90.1006 -104.505L0.800786 -46.1458Z" fill="url(#paint1_linear_)"/>
<path d="M0.800786 -162.859V-46.1516L90.1006 12.2079L179.4 -46.1516V-162.859L90.1006 -221.219L0.800786 -162.859Z" fill="url(#paint2_linear_61385)"/>
<path d="M179.4 70.5617V-46.1462L268.7 -104.506L358 -46.1462V70.5617L268.7 128.921L179.4 70.5617Z" fill="url(#paint3_linear_61385)"/>
<path d="M358 -162.859V-46.1516L268.7 12.2079L179.4 -46.1516V-162.859L268.7 -221.219L358 -162.859Z" fill="url(#paint4_linear_61385)"/>
<path d="M268.7 128.946V12.2382L179.4 -46.1214L90.1006 12.2382L90.1006 128.946L179.4 187.305L268.7 128.946Z" fill="url(#paint5_linear_61385)"/>
</g>
<defs>
<linearGradient id="paint0_linear_61385" x1="-1.00001" y1="-549.695" x2="440.816" y2="-496.128" gradientUnits="userSpaceOnUse">
<stop stop-color="#FF008E"/>
<stop offset="1" stop-color="#FFCD1E"/>
</linearGradient>
<linearGradient id="paint1_linear_61385" x1="90.1006" y1="123.554" x2="-16.6068" y2="-36.8597" gradientUnits="userSpaceOnUse">
<stop stop-color="#8257E5"/>
<stop offset="1" stop-color="#FF008E" stop-opacity="0"/>
</linearGradient>
<linearGradient id="paint2_linear_61385" x1="90.1006" y1="6.84041" x2="-16.6068" y2="-153.573" gradientUnits="userSpaceOnUse">
<stop stop-color="#8257E5"/>
<stop offset="1" stop-color="#FF008E" stop-opacity="0"/>
</linearGradient>
<linearGradient id="paint3_linear_61385" x1="358" y1="77.1207" x2="168.336" y2="-23.7017" gradientUnits="userSpaceOnUse">
<stop stop-color="#FF008E" stop-opacity="0"/>
<stop offset="1" stop-color="#FFCD1E"/>
</linearGradient>
<linearGradient id="paint4_linear_61385" x1="268.7" y1="6.84041" x2="375.408" y2="-153.573" gradientUnits="userSpaceOnUse">
<stop stop-color="#8257E5"/>
<stop offset="1" stop-color="#FF008E" stop-opacity="0"/>
</linearGradient>
<linearGradient id="paint5_linear_61385" x1="179.4" y1="-40.7538" x2="286.108" y2="119.66" gradientUnits="userSpaceOnUse">
<stop stop-color="#8257E5"/>
<stop offset="1" stop-color="#FF008E" stop-opacity="0"/>
</linearGradient>
</defs>
</svg>
